<?xml version="1.0" standalone="no"?>
<!DOCTYPE svg PUBLIC "-//W3C//DTD SVG 20010904//EN"
 "http://www.w3.org/TR/2001/REC-SVG-20010904/DTD/svg10.dtd">
<svg version="1.0" xmlns="http://www.w3.org/2000/svg"
 width="1280.000000pt" height="803.000000pt" viewBox="0 0 1280.000000 803.000000"
 preserveAspectRatio="xMidYMid meet">
<metadata>
Created by potrace 1.15, written by Peter Selinger 2001-2017
</metadata>
<g transform="translate(0.000000,803.000000) scale(0.100000,-0.100000)"
fill="#000000" stroke="none">
<path d="M6426 7968 c-2 -7 -48 -746 -101 -1643 -53 -896 -98 -1639 -101
-1651 -3 -18 -13 -22 -61 -28 -398 -47 -856 -255 -1180 -536 l-76 -65 -1556
301 c-856 166 -1576 307 -1601 314 -25 6 -62 13 -82 15 -39 4 -40 4 -53 -62
l-6 -31 58 -12 c44 -9 2846 -965 2861 -976 2 -1 -21 -47 -52 -101 -180 -319
-286 -710 -286 -1056 l0 -119 -27 6 c-16 3 -183 28 -373 55 -992 144 -3439
502 -3463 507 -20 4 -29 1 -35 -13 -4 -10 -13 -18 -20 -18 -7 0 -64 -47 -127
-103 -108 -99 -114 -106 -108 -135 3 -18 6 -32 7 -33 1 -1 850 -288 1386 -469
168 -57 317 -108 331 -113 l27 -11 -98 -99 c-191 -192 -298 -415 -319 -664
-17 -204 18 -388 109 -573 219 -447 753 -716 1275 -642 284 41 526 157 714
345 175 174 273 357 317 591 22 116 15 324 -15 435 -12 44 -20 81 -18 82 6 7
852 -397 859 -410 17 -30 147 -186 218 -260 290 -305 735 -555 1145 -645 555
-122 1088 -54 1585 200 309 157 591 397 799 677 l84 112 366 210 c202 115 374
212 383 215 15 6 16 2 8 -27 -20 -75 -30 -239 -20 -336 30 -277 133 -496 325
-687 249 -250 590 -372 933 -336 408 44 750 280 922 635 87 182 112 289 112
491 0 311 -108 570 -330 792 -35 35 -62 66 -60 69 4 4 237 88 783 284 158 57
743 267 837 302 16 5 26 14 22 19 -3 5 7 29 22 54 14 25 24 48 21 51 -3 3 -72
46 -154 96 l-148 90 -945 -147 c-520 -80 -1161 -180 -1425 -221 -884 -138
-1250 -194 -1270 -197 -18 -2 -21 6 -27 92 -14 174 -67 409 -135 591 -52 140
-156 339 -250 479 -46 68 -82 125 -81 127 8 7 2748 767 2795 774 31 5 57 11
59 13 2 2 0 23 -4 48 -7 42 -9 44 -42 45 -19 0 -48 -3 -65 -8 -30 -8 -3067
-487 -3108 -490 -13 -1 -54 22 -102 58 -106 78 -250 163 -381 226 -212 99
-525 187 -730 204 l-82 7 -6 106 c-3 58 -24 522 -46 1031 -22 509 -52 1179
-65 1490 -14 311 -26 593 -27 628 l-1 62 -49 0 c-30 0 -50 -5 -52 -12z m58
-1398 c9 -195 29 -665 46 -1045 16 -379 32 -727 35 -772 l5 -82 -120 -3 -120
-3 0 32 c0 18 29 513 65 1100 36 587 65 1083 65 1102 0 19 2 32 4 30 2 -2 11
-164 20 -359z m216 -2011 c415 -37 811 -193 1155 -452 114 -86 328 -304 418
-425 637 -860 563 -2030 -176 -2809 -160 -169 -405 -347 -621 -453 -210 -102
-470 -179 -711 -211 -138 -18 -429 -15 -570 6 -261 38 -489 110 -710 224 -742
383 -1195 1119 -1195 1941 0 486 148 927 443 1319 83 110 258 290 367 378 449
361 1025 535 1600 482z m-3051 -374 c637 -124 1162 -225 1166 -225 4 0 -22
-33 -57 -72 -49 -56 -139 -169 -163 -206 -2 -2 -2029 692 -2105 721 -8 3 -12
6 -7 6 4 1 529 -100 1166 -224z m6496 215 c-11 -5 -437 -125 -948 -267 -678
-188 -926 -261 -923 -270 9 -23 -3 -14 -46 35 -23 26 -73 77 -110 113 l-69 66
113 17 c62 10 532 84 1043 165 512 82 937 149 945 149 9 0 7 -3 -5 -8z m2393
-1502 c50 -29 91 -55 91 -58 1 -3 -372 -139 -828 -303 l-829 -298 -58 36 c-33
19 -104 53 -159 74 -404 159 -869 81 -1187 -197 -119 -104 -228 -246 -285
-371 l-28 -60 -350 -200 c-192 -110 -351 -198 -353 -196 -2 2 10 29 26 61 138
274 223 633 226 945 0 81 4 142 8 135 4 -6 8 -23 8 -38 0 -15 3 -29 8 -31 4
-3 104 11 222 29 220 35 278 44 410 64 107 16 147 22 515 80 354 55 404 63
505 79 36 5 214 33 395 61 368 57 408 64 515 80 114 17 164 25 450 70 328 52
367 57 460 71 41 6 77 13 79 15 2 2 19 4 36 4 21 0 65 -19 123 -52z m-11234
-258 c529 -78 1390 -204 1915 -280 525 -77 956 -140 957 -140 2 0 4 10 5 23 1
12 9 -41 19 -118 39 -298 106 -521 236 -779 31 -59 51 -106 46 -105 -5 2 -188
87 -405 189 -389 182 -395 186 -415 225 -32 66 -137 199 -210 266 -94 86 -189
151 -306 208 -354 174 -771 172 -1133 -4 -62 -30 -118 -55 -125 -55 -7 0 -33
7 -58 16 -45 16 -965 328 -1399 475 -129 43 -237 81 -240 84 -6 7 129 134 143
135 5 0 442 -63 970 -140z m9189 -325 c236 -42 422 -138 587 -304 237 -239
338 -579 270 -911 -62 -305 -271 -573 -558 -714 -162 -81 -323 -112 -527 -103
-253 11 -479 107 -662 281 -154 145 -250 312 -301 521 -26 108 -23 353 7 465
32 123 116 289 198 389 233 289 625 439 986 376z m-7798 -165 c277 -27 528
-142 707 -323 503 -511 349 -1298 -316 -1613 -408 -193 -921 -127 -1260 162
-156 133 -263 296 -323 491 -24 80 -27 103 -27 258 -1 149 2 180 22 250 126
436 509 735 997 778 79 7 91 7 200 -3z"/>
<path d="M7950 3847 c-19 -7 -89 -47 -155 -89 -319 -201 -608 -333 -1062 -485
l-203 -68 0 -347 c0 -341 0 -348 -20 -348 -19 0 -20 8 -22 337 l-3 337 -210
66 c-272 85 -428 142 -540 195 -49 23 -115 50 -145 60 -72 23 -246 110 -390
195 -163 96 -199 112 -239 112 -58 -1 -84 -16 -154 -89 -127 -131 -197 -246
-243 -398 -26 -83 -28 -103 -28 -265 -1 -136 3 -192 17 -250 l18 -75 195 -155
c107 -85 203 -161 213 -168 12 -8 93 -18 223 -27 528 -37 484 -36 608 -15 155
27 163 26 106 -10 -97 -62 -181 -164 -218 -266 -30 -82 -30 -207 1 -286 123
-319 620 -496 1046 -373 286 83 476 271 492 489 13 170 -79 329 -260 448 l-62
40 45 -6 c25 -3 97 -15 160 -27 146 -27 508 -35 605 -12 33 7 100 18 148 22
101 10 72 -8 321 206 191 165 179 148 206 299 15 88 12 282 -6 376 -33 174
-99 311 -219 455 -101 121 -152 149 -225 122z m116 -154 c145 -169 199 -279
229 -466 18 -113 18 -172 1 -307 l-14 -105 -52 -48 c-29 -26 -54 -47 -55 -45
-2 2 6 30 17 63 28 80 30 234 4 319 -66 222 -238 382 -463 432 l-74 16 93 57
c51 32 122 76 158 98 36 23 74 42 86 42 14 1 38 -19 70 -56z m-2967 -52 c64
-37 136 -79 161 -91 l45 -24 -65 -13 c-162 -32 -341 -163 -413 -301 -49 -94
-67 -162 -67 -257 0 -95 20 -179 59 -252 16 -29 27 -53 25 -53 -2 0 -43 32
-92 71 -110 90 -114 102 -116 324 -1 181 14 256 79 385 59 117 201 280 243
280 14 0 77 -31 141 -69z m2619 -206 c175 -41 317 -168 372 -334 26 -78 29
-205 6 -283 -34 -117 -127 -233 -239 -297 -50 -29 -62 -31 -229 -42 l-177 -13
-84 42 c-183 90 -287 251 -287 442 0 134 47 245 145 346 126 127 314 181 493
139z m-2104 -56 c85 -34 122 -55 165 -94 159 -145 199 -344 107 -530 -58 -116
-175 -212 -316 -256 -76 -24 -227 -29 -312 -9 -89 20 -194 78 -258 140 -123
122 -169 291 -121 448 64 212 290 359 536 348 78 -3 104 -9 199 -47z m1442
-134 c-62 -91 -93 -288 -66 -418 20 -96 85 -213 161 -289 37 -38 63 -68 59
-68 -4 0 -135 22 -291 50 -156 28 -285 50 -286 50 -2 0 -3 125 -3 279 l0 278
181 62 c99 34 194 69 212 76 51 23 58 18 33 -20z m-668 -409 l-3 -270 -295
-48 c-162 -26 -306 -50 -320 -53 l-25 -5 25 17 c54 38 145 131 181 186 58 89
83 175 84 282 0 99 -14 161 -56 246 l-28 56 220 -71 219 -71 -2 -269z m325
-460 c197 -59 323 -150 390 -286 27 -55 32 -74 31 -140 0 -61 -5 -85 -27 -128
-79 -156 -239 -261 -466 -307 -115 -24 -334 -16 -441 14 -228 66 -394 214
-420 373 -17 110 22 217 113 306 92 91 206 147 367 183 125 28 332 21 453 -15z"/>
<path d="M10232 2019 c-280 -36 -532 -255 -627 -544 -30 -93 -40 -157 -40
-275 0 -161 23 -257 90 -392 197 -392 638 -540 1019 -340 90 47 222 173 280
266 185 296 179 672 -13 955 -124 183 -320 304 -532 331 -91 11 -87 11 -177
-1z m269 -122 c325 -104 528 -448 475 -805 -42 -279 -210 -492 -458 -579 -61
-22 -91 -26 -188 -27 -156 -1 -257 31 -380 123 -131 97 -233 263 -269 439 -18
86 -13 256 9 344 35 141 131 297 233 381 77 63 203 122 297 141 47 9 235 -3
281 -17z"/>
<path d="M2422 1835 c-150 -34 -274 -99 -383 -202 -83 -79 -128 -138 -173
-229 -65 -133 -87 -229 -87 -381 0 -376 248 -700 607 -794 101 -26 268 -28
374 -4 41 9 120 38 175 65 166 82 282 198 365 365 73 148 85 202 84 380 -1
135 -3 158 -28 235 -89 273 -280 464 -551 550 -90 29 -289 37 -383 15z m363
-115 c283 -88 483 -347 502 -650 25 -415 -295 -760 -706 -760 -121 0 -203 19
-311 72 -69 34 -103 60 -176 133 -78 78 -98 104 -137 185 -62 129 -81 223 -74
364 15 335 234 596 562 672 85 20 250 12 340 -16z"/>
</g>
</svg>
