<svg width="10" height="10" viewBox="0 0 10 10" fill="none" xmlns="http://www.w3.org/2000/svg">
<path d="M5.7249 4.51761L9.37119 0.871326C9.56661 0.675903 9.56661 0.35933 9.37119 0.164457C9.17577 -0.030966 8.85918 -0.030966 8.66432 0.164457L5.01803 3.81075L1.37175 0.163871C1.17689 -0.0315524 0.859751 -0.0315524 0.664878 0.163871C0.469455 0.359295 0.469455 0.675867 0.664878 0.87074L4.31117 4.51761L0.664878 8.1639C0.469455 8.35933 0.469455 8.67592 0.664878 8.87077C0.762021 8.96905 0.890029 9.01763 1.01802 9.01763C1.14601 9.01763 1.27402 8.96905 1.37175 8.87134L5.01803 5.22447L8.66432 8.87075C8.76205 8.96848 8.89004 9.01705 9.01803 9.01705C9.14602 9.01705 9.27403 8.96846 9.37174 8.87075C9.56717 8.67533 9.56717 8.35874 9.37174 8.16389L5.72487 4.5176L5.7249 4.51761Z" fill="#6B6C7E"/>
</svg>
