<svg width="16" height="16" viewBox="0 0 16 16" fill="none" xmlns="http://www.w3.org/2000/svg">
<path d="M8 12C7.73145 12 7.47461 11.8937 7.28418 11.7031L5.04688 9.46564C4.64941 9.0719 4.64941 8.43127 5.04688 8.03436C5.44043 7.63751 6.08105 7.63751 6.47754 8.03436L7 8.55627V1C7 0.446899 7.44629 0 8 0C8.55273 0 9 0.446899 9 1V8.55627L9.52148 8.03436C9.71875 7.83752 9.97754 7.73749 10.2373 7.73749C10.4971 7.73749 10.7559 7.83752 10.9531 8.03436C11.3496 8.4281 11.3496 9.06873 10.9531 9.46564L8.71582 11.7031C8.52441 11.8937 8.26855 12 8 12Z" fill="white"/>
<path d="M12 12C12 11.4469 12.4473 11 13 11C13.5527 11 14 11.4469 14 12V16H2V12C2 11.4469 2.44727 11 3 11C3.55273 11 4 11.4469 4 12V14H12V12Z" fill="white"/>
</svg>
