<svg width="88" height="88" viewBox="0 0 88 88" fill="none" xmlns="http://www.w3.org/2000/svg">
<path d="M64.625 85.25C76.0159 85.25 85.25 76.0159 85.25 64.625C85.25 53.2341 76.0159 44 64.625 44C53.2341 44 44 53.2341 44 64.625C44 76.0159 53.2341 85.25 64.625 85.25Z" fill="#32D17D"/>
<path opacity="0.25" d="M64.6248 44.0004C61.5832 43.9853 58.5759 44.6432 55.8184 45.9269C53.0609 47.2105 50.6214 49.0882 48.6748 51.4254C52.5846 47.7822 57.7559 45.7988 63.0992 45.8931C68.4424 45.9873 73.5405 48.1519 77.3194 51.9308C81.0983 55.7096 83.2628 60.8077 83.3571 66.151C83.4514 71.4943 81.468 76.6656 77.8248 80.5754C81.1219 77.8725 83.5004 74.2142 84.6329 70.104C85.7655 65.9938 85.5965 61.6336 84.1492 57.6234C82.7019 53.6132 80.0475 50.15 76.551 47.7104C73.0546 45.2708 68.8881 43.9747 64.6248 44.0004Z" fill="white"/>
<path d="M64.625 44C69.0892 43.99 73.4346 45.4385 77 48.125V16.5H2.75V66H44.1375C44.1375 65.5875 44 65.0375 44 64.625C44 59.1549 46.173 53.9089 50.0409 50.0409C53.9089 46.173 59.1549 44 64.625 44Z" fill="#EDF9F0"/>
<path opacity="0.14" d="M35.75 66H44.1375C44.1375 65.5875 44 65.0375 44 64.625C43.9984 60.4586 45.2587 56.3893 47.615 52.9531C49.9712 49.5169 53.3129 46.8749 57.2 45.375H56.375C50.9049 45.375 45.6589 47.548 41.7909 51.4159C37.923 55.2839 35.75 60.5299 35.75 66Z" fill="#000064"/>
<path opacity="0.14" d="M2.75 16.5L39.875 44.825L77 16.5V18.5625L35.75 55L2.75 22.6875V16.5Z" fill="#000064"/>
<path d="M44 66H2.75V16.5H77V48.125" stroke="#137EE0" stroke-width="2.75757" stroke-miterlimit="10" stroke-linecap="round" stroke-linejoin="round"/>
<path d="M72.875 60.5L61.875 71.5L56.375 66M2.75 16.5L39.875 44.825L77 16.5H2.75Z" stroke="#137EE0" stroke-width="2.75757" stroke-miterlimit="10" stroke-linecap="round" stroke-linejoin="round"/>
<path d="M64.625 85.25C76.0159 85.25 85.25 76.0159 85.25 64.625C85.25 53.2341 76.0159 44 64.625 44C53.2341 44 44 53.2341 44 64.625C44 76.0159 53.2341 85.25 64.625 85.25Z" stroke="#137EE0" stroke-width="2.75757" stroke-miterlimit="10" stroke-linecap="round" stroke-linejoin="round"/>
</svg>
