<svg width="16" height="16" viewBox="0 0 16 16" fill="none" xmlns="http://www.w3.org/2000/svg">
<path d="M15.4667 1.36927C15.4712 1.30099 15.4616 1.23253 15.4385 1.1681C15.4155 1.10367 15.3795 1.04464 15.3328 0.994664C15.2861 0.944685 15.2296 0.904815 15.1669 0.877515C15.1041 0.850216 15.0364 0.836065 14.968 0.835938H1.00002C0.931573 0.835968 0.863858 0.850053 0.801073 0.877319C0.738288 0.904586 0.68177 0.944454 0.63502 0.994453C0.588271 1.04445 0.552286 1.10352 0.529294 1.16799C0.506302 1.23247 0.496793 1.30097 0.501357 1.36927C0.618611 3.00194 1.26659 4.55147 2.34649 5.78159C3.42639 7.0117 4.87895 7.8549 6.48269 8.1826V14.7659C6.48273 14.8609 6.50983 14.954 6.56083 15.0341C6.61182 15.1143 6.6846 15.1783 6.77064 15.2186C6.85668 15.2589 6.95242 15.2738 7.04665 15.2616C7.14088 15.2495 7.22969 15.2107 7.30269 15.1499L9.30269 13.4833C9.35907 13.4364 9.40443 13.3777 9.43555 13.3114C9.46666 13.245 9.48276 13.1726 9.48269 13.0993V8.1826C11.087 7.85551 12.5402 7.01257 13.6206 5.78239C14.7011 4.55221 15.3494 3.00235 15.4667 1.36927V1.36927Z" stroke="#32D17D" stroke-width="1.5" stroke-linecap="round" stroke-linejoin="round"/>
</svg>
