<svg width="32" height="32" viewBox="0 0 32 32" fill="none" xmlns="http://www.w3.org/2000/svg">
<path d="M0 4C0 1.79086 1.79086 0 4 0H28C30.2091 0 32 1.79086 32 4V28C32 30.2091 30.2091 32 28 32H4C1.79086 32 0 30.2091 0 28V4Z" fill="#FFF3E6"/>
<g clip-path="url(#clip0_475:1489)">
<path d="M16.427 4.73901C16.3824 4.66576 16.3197 4.60522 16.2449 4.56322C16.1701 4.52121 16.0858 4.49915 16 4.49915C15.9142 4.49915 15.8299 4.52121 15.7551 4.56322C15.6803 4.60522 15.6176 4.66576 15.573 4.73901C13.984 7.34301 8.5 16.534 8.5 20.052C8.5 22.0411 9.29018 23.9488 10.6967 25.3553C12.1032 26.7618 14.0109 27.552 16 27.552C17.9891 27.552 19.8968 26.7618 21.3033 25.3553C22.7098 23.9488 23.5 22.0411 23.5 20.052C23.5 16.534 18.016 7.34201 16.427 4.73901Z" fill="#FFD29F"/>
<path d="M16 24.521C14.3049 24.5245 12.6588 23.9527 11.3309 22.8991C10.003 21.8455 9.07194 20.3725 8.69 18.721C8.57786 19.1567 8.51415 19.6034 8.5 20.053C8.5 22.0421 9.29018 23.9498 10.6967 25.3563C12.1032 26.7628 14.0109 27.553 16 27.553C17.9891 27.553 19.8968 26.7628 21.3033 25.3563C22.7098 23.9498 23.5 22.0421 23.5 20.053C23.4859 19.6034 23.4221 19.1567 23.31 18.721C22.9281 20.3725 21.997 21.8455 20.6691 22.8991C19.3412 23.9527 17.6951 24.5245 16 24.521Z" fill="#FFA63D"/>
<path d="M16.427 4.73901C16.3824 4.66576 16.3197 4.60522 16.2449 4.56322C16.1701 4.52121 16.0858 4.49915 16 4.49915C15.9142 4.49915 15.8299 4.52121 15.7551 4.56322C15.6803 4.60522 15.6176 4.66576 15.573 4.73901C13.984 7.34301 8.5 16.534 8.5 20.052C8.5 22.0411 9.29018 23.9488 10.6967 25.3553C12.1032 26.7618 14.0109 27.552 16 27.552C17.9891 27.552 19.8968 26.7618 21.3033 25.3553C22.7098 23.9488 23.5 22.0411 23.5 20.052C23.5 16.534 18.016 7.34201 16.427 4.73901Z" stroke="#80531F" stroke-linecap="round" stroke-linejoin="round"/>
<path d="M16.0002 24.521C14.8114 24.5242 13.6696 24.0569 12.8242 23.221" stroke="#80531F" stroke-linecap="round" stroke-linejoin="round"/>
</g>
<defs>
<clipPath id="clip0_475:1489">
<rect width="24" height="24" fill="white" transform="translate(4 4)"/>
</clipPath>
</defs>
</svg>
