<svg width="16" height="17" viewBox="0 0 16 17" fill="none" xmlns="http://www.w3.org/2000/svg">
<path d="M1.00098 0.5H3.00098C3.55273 0.5 4.00098 0.947998 4.00098 1.5C4.00098 2.052 3.55273 2.5 3.00098 2.5H1.00098C0.449219 2.5 0.000976562 2.052 0.000976562 1.5C0.000976562 0.947998 0.449219 0.5 1.00098 0.5Z" fill="white"/>
<path d="M1.00098 7.5H3.00098C3.55273 7.5 4.00098 7.948 4.00098 8.5C4.00098 9.052 3.55273 9.5 3.00098 9.5H1.00098C0.449219 9.5 0.000976562 9.052 0.000976562 8.5C0.000976562 7.948 0.449219 7.5 1.00098 7.5Z" fill="white"/>
<path d="M3.00098 14.5H1.00098C0.449219 14.5 0.000976562 14.948 0.000976562 15.5C0.000976562 16.052 0.449219 16.5 1.00098 16.5H3.00098C3.55273 16.5 4.00098 16.052 4.00098 15.5C4.00098 14.948 3.55273 14.5 3.00098 14.5Z" fill="white"/>
<path d="M7 9.5H15C15.5498 9.5 16 9.04999 16 8.5C16 7.95001 15.5498 7.5 15 7.5H7C6.4502 7.5 6 7.95001 6 8.5C6 9.04999 6.4502 9.5 7 9.5Z" fill="white"/>
<path d="M15 2.5H7C6.4502 2.5 6 2.04999 6 1.5C6 0.950012 6.4502 0.5 7 0.5H15C15.5498 0.5 16 0.950012 16 1.5C16 2.04999 15.5498 2.5 15 2.5Z" fill="white"/>
<path d="M7 16.5H15C15.5498 16.5 16 16.05 16 15.5C16 14.95 15.5498 14.5 15 14.5H7C6.4502 14.5 6 14.95 6 15.5C6 16.05 6.4502 16.5 7 16.5Z" fill="white"/>
</svg>
