<svg width="133" height="40" fill="none" xmlns="http://www.w3.org/2000/svg"><g clip-path="url(#a)"><path d="M97.68 39.069c-1.494-1.016-3.585-1.315-4.362-3.227-.299-.717-1.374-1.614-.359-2.211a2.091 2.091 0 0 1 2.809.478 3.646 3.646 0 0 0 2.27 1.912c3.407.777 5.259-1.255 4.602-5.199-.926.418-1.886.758-2.868 1.016a5.976 5.976 0 0 1-6.872-3.346 7.709 7.709 0 0 1 1.254-8.844 5.976 5.976 0 0 1 7.59-.837c.776.419.896.598 1.732 0 .837-.597 2.63 0 2.63 1.614v9.5c0 4.602-.956 8.068-5.976 9.323l-2.45-.18Zm1.613-18.525a4.243 4.243 0 0 0-4.063 4.362 4.124 4.124 0 0 0 4.063 4.363 4.363 4.363 0 0 0 0-8.725Z" fill="#2E2D2C"/><path d="M132.345 31.299c-4.721 1.434-6.693 0-6.693-4.9v-4.123c0-.479 0-.897-.418-1.315-1.614-1.255-1.255-1.076 0-2.749 1.254-1.673 1.075-3.525 3.406-3.764.358 0 0 .716 0 1.135 0 1.852 0 3.167 2.45 2.808.358 0 .717 0 1.135.538v2.032c-1.195.418-3.107-1.135-3.526 1.016a26.998 26.998 0 0 0 0 5.378c0 1.075.598 1.793 1.733 1.793a2.39 2.39 0 0 1 1.853.597l.06 1.554Z" fill="#2A2928"/><path d="M28.904 12.058a5.378 5.378 0 0 1 5.139 2.808c.358.658 1.314 1.674 0 2.211a2.152 2.152 0 0 1-2.809-.478c0-.358-.478-.896-.896-1.195a2.39 2.39 0 0 0-3.645 0 2.09 2.09 0 0 0 .717 3.466c1.255.717 2.689 1.135 4.003 1.733a5.975 5.975 0 0 1 3.645 6.812 5.975 5.975 0 0 1-5.318 4.78 6.334 6.334 0 0 1-6.812-3.585c0-.537-1.135-1.553 0-1.912a2.33 2.33 0 0 1 3.047.478s.359.777.598 1.136a2.987 2.987 0 0 0 3.227 1.075 2.45 2.45 0 0 0 2.151-2.091 2.57 2.57 0 0 0-1.135-3.108c-1.315-.776-2.809-1.255-4.183-1.972a5.259 5.259 0 0 1-3.167-6.334 5.378 5.378 0 0 1 5.438-3.824Z" fill="#302F2E"/><path d="M112.861 11.52v7.888c5.976-3.167 9.203-1.135 9.262 5.378v5.199c0 1.733 0 1.733-1.494 1.733s-1.733-.478-1.673-1.793c.06-1.315 0-4.123 0-5.976 0-1.852-.896-2.987-2.749-3.047a2.863 2.863 0 0 0-2.18.686 2.875 2.875 0 0 0-.987 2.063v6.692c0 1.196-.298 1.614-1.553 1.614s-1.853-.658-1.853-1.853V14.39c0-2.271 1.673-2.032 3.227-2.869Z" fill="#333231"/><path d="M60.455 24.904v5.199c0 1.733-2.092 2.45-2.69 1.374-.597-1.075-1.135-.717-1.912 0a5.975 5.975 0 0 1-7.828-1.673 7.888 7.888 0 0 1 .12-9.56 5.976 5.976 0 0 1 7.708-1.435c.718.478 1.255 1.255 1.614 0h2.21c.778 0 .598 1.076.598 1.673.24 1.195.18 2.809.18 4.422Zm-2.988 0a4.003 4.003 0 0 0-4.063-4.362 4.183 4.183 0 0 0-3.526 4.601 3.944 3.944 0 0 0 7.888 0l-.3-.239Z" fill="#302F2E"/><path d="M.816 8.951H7.63a1.673 1.673 0 0 1 1.673.956c1.195 2.032 1.673 4.422 4.362 5.498.956.418 1.315 2.33 2.151 3.944H6.912a1.195 1.195 0 0 1-1.136-.837c-1.613-3.107-3.227-6.155-4.96-9.56Z" fill="#07D081"/><path d="M43.006 31.836c-2.75 0-4.123-1.076-4.422-3.705v-4.362c0-1.434.657-2.51-1.315-3.107-.717 0-.657-1.973 0-2.152 1.912-.418 1.195-1.733 1.315-2.749.12-1.015 0-1.673.956-2.15.956-.479 2.51-1.017 2.33 1.374-.179 2.39-.776 3.824 2.39 3.346 1.016 0 .777.837.837 1.434.06.598-.358 1.315-1.195 1.195-2.092-.358-2.211.837-2.092 2.39.12 1.554 0 2.57 0 3.825 0 1.255.36 1.912 1.554 1.972 1.195.06 1.912-.359 1.793 1.255-.12 1.613-1.255 1.255-2.151 1.434Z" fill="#3A3938"/><path d="M78.558 32.195a4.66 4.66 0 0 1-4.422-2.15c-.298-.599-1.135-1.435-.298-1.973a2.032 2.032 0 0 1 2.57 0c.298.299.477.777.776 1.016a1.854 1.854 0 0 0 2.749 0c.777-1.016.358-1.972-.717-2.57a13.208 13.208 0 0 0-2.092-.956c-1.852-.717-3.346-1.792-3.286-4.123a3.645 3.645 0 0 1 2.928-3.466 4.84 4.84 0 0 1 5.378 1.494c.418.538 1.255 1.375.538 1.972a2.151 2.151 0 0 1-2.45 0c-.478-.299-.478-.777-1.076-1.195a1.434 1.434 0 0 0-2.032.418 1.254 1.254 0 0 0 .478 1.972c.834.429 1.692.808 2.57 1.136 2.57 1.135 3.585 2.689 3.047 4.96-.537 2.27-2.45 3.465-4.66 3.465Z" fill="#31302F"/><path d="M64.098 24.964c.09-1.612.09-3.228 0-4.84 0-2.45 2.092-2.27 2.51-1.673 1.195 1.553 1.733.358 2.51 0 1.972-1.076 3.047-.657 3.107 1.016.06 1.673-.358 1.434-1.494 1.374-2.39 0-3.346 1.494-3.406 3.585-.12 1.89-.12 3.787 0 5.677 0 1.195-.299 1.673-1.554 1.673-1.255 0-1.733-.358-1.673-1.613.06-1.255 0-3.466 0-5.199Z" fill="#302F2E"/><path d="M9.482 4.288h4.542c.358 0 1.076 0 1.135.418.777 2.928 4.243 4.064 4.9 7.111-6.035 1.315-7.947.12-10.577-7.53Z" fill="#08D182"/><path d="M89.378 16.719v13.385c0 1.315-.538 1.613-1.674 1.613-1.135 0-1.553 0-1.553-1.434V19.467c.06-2.031 1.852-1.732 3.227-2.748Z" fill="#302F2E"/><path d="M24.358 6.38c-5.319.479-5.617 0-7.47-4.242-.478-1.135 0-1.434.956-1.494 3.765-.299 4.422.24 6.514 5.737Z" fill="#06D181"/><path d="M88.96 11.757a2.75 2.75 0 0 1-1.913 4.004c-.717 0-.837 0-.956-.717-.358-2.211 1.255-2.63 2.868-3.287Z" fill="#353433"/></g><defs><clipPath id="a"><path fill="#fff" d="M0 0h132.683v40H0z"/></clipPath></defs></svg>