<svg width="64" height="22" viewBox="0 0 64 22" fill="none" xmlns="http://www.w3.org/2000/svg">
<path d="M0.571289 7.10961L0.925815 6.23693C0.792186 6.52328 0.677647 6.8178 0.571289 7.10961ZM10.6153 2.19318e-06C8.57244 0.00221906 6.57324 0.5912 4.8555 1.69688C3.13775 2.80256 1.77377 4.3784 0.925815 6.23693L7.58544 9.98672L8.72538 10.6358L8.99809 10.4831L14.1524 7.63594L14.226 7.59503L19.443 4.69338C18.4689 3.24748 17.1543 2.06319 15.615 1.24477C14.0756 0.426348 12.3587 -0.00111729 10.6153 2.19318e-06ZM8.70629 9.36766L2.453 5.84422C3.21362 4.54899 4.27139 3.45323 5.539 2.64741C6.8066 1.84158 8.24769 1.3488 9.74329 1.20973C11.2389 1.07067 12.7461 1.28931 14.1406 1.84762C15.535 2.40592 16.7767 3.28787 17.7631 4.42067L8.70629 9.36766Z" fill="#00B0ED"/>
<path d="M18.4045 16.0518L1.95723 6.8178L0.934557 6.22874C0.758734 6.61608 0.607533 7.01412 0.481855 7.4205C-0.245467 9.75576 -0.146975 12.2702 0.760785 14.5414C1.66855 16.8126 3.33027 18.7023 5.46682 19.8929C7.60338 21.0835 10.0846 21.5026 12.4937 21.0798C14.9028 20.6569 17.0929 19.4179 18.6963 17.5708C18.9577 17.2734 19.2018 16.9611 19.4272 16.6354L18.4045 16.0518ZM10.6513 20.0771C9.18532 20.0754 7.73966 19.7342 6.42762 19.0803C5.11558 18.4264 3.97281 17.4775 3.08888 16.308C2.20496 15.1385 1.60389 13.7802 1.3328 12.3395C1.0617 10.8988 1.12795 9.4149 1.52634 8.0041L17.6491 16.9872C16.7622 17.9612 15.6816 18.7391 14.4765 19.2712C13.2715 19.8033 11.9686 20.0778 10.6513 20.0771Z" fill="#FF0000"/>
<path d="M18.8821 6.93508L12.5442 10.3631L12.0615 10.6358L12.5824 10.9085L18.8821 14.3474L19.4275 14.6474V6.64055L18.8821 6.93508ZM18.8821 13.8374L13.0515 10.6603L18.8821 7.4805V13.8374Z" fill="#FFCC2E"/>
<path fill-rule="evenodd" clip-rule="evenodd" d="M61.5815 12.3184V11.173H63.8259V10.0822H61.5815V9.11676H63.935V8.045H61.5815H59.9697V9.11676V10.0822V11.173V12.3184V13.3929H61.5815H64.0004V12.3184H61.5815Z" fill="black"/>
<path fill-rule="evenodd" clip-rule="evenodd" d="M43.6586 12.3184V11.1703H45.9058V10.0794H43.6586V9.11404H46.0148V8.04228H43.6586H42.0469V9.11404V10.0794V11.1703V12.3184V13.3902H43.6586H46.0803V12.3184H43.6586Z" fill="black"/>
<path fill-rule="evenodd" clip-rule="evenodd" d="M56.5627 10.4449V11.5357H57.269V12.1439C57.149 12.1739 55.5427 12.542 55.03 11.263C55.03 11.263 54.5228 10.0195 55.8809 9.26677C55.8809 9.26677 57.0263 8.70225 58.5862 9.61311V8.35591C58.5862 8.35591 55.8754 7.3796 54.261 8.57953C54.261 8.57953 53.3174 9.18768 53.2983 10.7067C53.2824 11.1878 53.3983 11.664 53.6333 12.0841C53.8683 12.5041 54.2136 12.852 54.6319 13.0902C54.6319 13.0902 56.1727 13.9765 58.698 13.0275V10.4449H56.5627Z" fill="black"/>
<path fill-rule="evenodd" clip-rule="evenodd" d="M51.3699 8.45409C50.4917 7.9523 48.7627 8.0423 48.7627 8.0423H48.5909H47.1592V13.3956H50.0445C50.3845 13.4039 50.7236 13.356 51.0481 13.2538C51.4655 13.1036 51.8338 12.842 52.1132 12.4973C52.3925 12.1526 52.5721 11.738 52.6325 11.2985C52.7373 10.7522 52.6724 10.1869 52.4467 9.6785C52.2211 9.17009 51.8453 8.74285 51.3699 8.45409ZM50.9472 11.3994C50.6744 12.3402 49.4581 12.2857 49.4581 12.2857H48.7627V9.12769H49.63C49.8167 9.1423 50.0004 9.18363 50.1754 9.25041C50.3689 9.33802 50.5432 9.46315 50.6881 9.61857C51.1926 10.3304 51.0099 10.993 50.9472 11.3994Z" fill="black"/>
<path fill-rule="evenodd" clip-rule="evenodd" d="M40.3193 8.00139H40.0875V12.1902L36.4468 8.00139H35.8223V13.3929H36.5559V12.992V9.2395L40.1584 13.3929H40.8238V8.00139H40.3193Z" fill="black"/>
<path fill-rule="evenodd" clip-rule="evenodd" d="M34.7288 11.0612V8.00139H33.9516V11.0612L33.9271 11.6721C33.8875 11.8926 33.7912 12.099 33.6478 12.2712C33.5044 12.4433 33.3187 12.5751 33.1089 12.6539C32.64 12.811 32.1325 12.811 31.6636 12.6539C31.1781 12.3811 31.0881 12.2148 31.0881 12.2148C30.9 11.983 30.8591 11.4239 30.8536 11.0612V8.00139H30.0791V11.2194C30.0791 11.3885 30.1091 11.7048 30.1091 11.7048C30.1417 11.9937 30.2387 12.2716 30.3931 12.518C30.5474 12.7644 30.7551 12.973 31.0009 13.1284C31.5923 13.4187 32.2589 13.5196 32.9099 13.4175C33.197 13.3818 33.474 13.2886 33.7242 13.1433C33.9745 12.9981 34.1928 12.8037 34.3661 12.572C34.7834 12.0403 34.7288 11.0612 34.7288 11.0612Z" fill="black"/>
<path fill-rule="evenodd" clip-rule="evenodd" d="M29.2593 12.5448L28.6075 11.5385C28.4074 11.2705 28.1726 11.0302 27.9093 10.824C28.1789 10.7171 28.41 10.5313 28.5722 10.2908C28.7344 10.0504 28.8203 9.76664 28.8185 9.47662C28.8168 9.1866 28.7275 8.90387 28.5623 8.66546C28.3972 8.42705 28.1639 8.24406 27.893 8.14047C27.5391 8.03581 27.171 7.98704 26.8021 7.99593H25.6895V13.3929H26.453V11.0449C27.0557 11.0094 27.0639 11.0694 27.1921 11.1321C27.3211 11.2105 27.4417 11.3019 27.5521 11.4048C27.7266 11.473 28.9156 13.382 28.9156 13.382H29.8347L29.2593 12.5448ZM27.0394 10.3631H26.453V8.67226H27.0639C28.1548 8.70498 28.0021 9.59675 28.0021 9.59675C27.9393 10.434 27.0394 10.3631 27.0394 10.3631Z" fill="black"/>
<path fill-rule="evenodd" clip-rule="evenodd" d="M23.4529 7.99319H22.3811H21.5957V13.3929H22.362V11.0503H23.0656C23.3664 11.0601 23.6667 11.0205 23.9547 10.933C24.2423 10.8502 24.4959 10.6778 24.6789 10.4409C24.8618 10.2041 24.9644 9.91502 24.9719 9.61583C25.0619 8.04228 23.4529 7.99319 23.4529 7.99319ZM24.2056 9.6022C24.1701 10.4203 23.2265 10.3658 23.2265 10.3658H22.3811V8.67497H23.1802C23.3882 8.65482 23.5979 8.68961 23.7883 8.77588C23.9361 8.85133 24.0556 8.97257 24.1288 9.1215C24.2021 9.27043 24.2251 9.43906 24.1946 9.6022H24.2056Z" fill="black"/>
</svg>
