<svg width="32" height="32" fill="none" xmlns="http://www.w3.org/2000/svg"><path d="M0 4a4 4 0 0 1 4-4h24a4 4 0 0 1 4 4v24a4 4 0 0 1-4 4H4a4 4 0 0 1-4-4V4Z" fill="#E6F9FF"/><path d="M16 27.5c6.352 0 11.5-5.148 11.5-11.5 0-6.35-5.148-11.5-11.5-11.5C9.65 4.5 4.5 9.65 4.5 16c0 6.352 5.149 11.5 11.5 11.5Z" fill="#9FEAFF"/><path d="M7.868 24.132A11.5 11.5 0 0 1 24.132 7.868L7.868 24.132Z" fill="#DFF9FF"/><path d="M16 27.5c6.352 0 11.5-5.148 11.5-11.5 0-6.35-5.148-11.5-11.5-11.5C9.65 4.5 4.5 9.65 4.5 16c0 6.352 5.149 11.5 11.5 11.5Z" stroke="#00303E" stroke-linecap="round" stroke-linejoin="round"/><path d="M16 17.5a1.5 1.5 0 1 0 0-3 1.5 1.5 0 0 0 0 3Z" fill="#9FEAFF" stroke="#00303E" stroke-linecap="round" stroke-linejoin="round"/><path d="m17.06 14.94 4.95-4.95M6.444 15.5h2M7.222 19.635l1.849-.765M24.776 19.636l-1.847-.766M25.499 15.5l-1.999-.001M24.776 12.365l-1.847.765M20.266 7.224 19.5 9.07M16.5 6.685v2M12.365 7.223l.765 1.847M9.283 9.282l1.413 1.414M7.224 12.364l1.847.766" stroke="#00303E" stroke-linecap="round" stroke-linejoin="round"/><path d="M20 20.5h-8a.5.5 0 0 0-.5.5v2a.5.5 0 0 0 .5.5h8a.5.5 0 0 0 .5-.5v-2a.5.5 0 0 0-.5-.5Z" fill="#9FEAFF" stroke="#00303E" stroke-linecap="round" stroke-linejoin="round"/></svg>