<svg width="32" height="32" fill="none" xmlns="http://www.w3.org/2000/svg"><path d="M0 4a4 4 0 0 1 4-4h24a4 4 0 0 1 4 4v24a4 4 0 0 1-4 4H4a4 4 0 0 1-4-4V4Z" fill="#E3FCEF"/><g clip-path="url(#a)"><path d="M16 27.501c6.35 0 11.5-5.148 11.5-11.5 0-6.35-5.15-11.5-11.5-11.5-6.352 0-11.5 5.15-11.5 11.5 0 6.352 5.148 11.5 11.5 11.5Z" fill="#32D17D"/><path d="M7.867 24.133A11.5 11.5 0 1 1 24.13 7.869L7.867 24.133Z" fill="#EFFCF5"/><path d="M16 27.501c6.35 0 11.5-5.148 11.5-11.5 0-6.35-5.15-11.5-11.5-11.5-6.352 0-11.5 5.15-11.5 11.5 0 6.352 5.148 11.5 11.5 11.5Z" stroke="#1F804C" stroke-linecap="round" stroke-linejoin="round"/><path d="M16 10.501v5.5l6 5.5" stroke="#1F804C" stroke-linecap="round" stroke-linejoin="round"/></g><defs><clipPath id="a"><path fill="#fff" transform="translate(4 4)" d="M0 0h24v24H0z"/></clipPath></defs></svg>