<svg width="25" height="25" viewBox="0 0 25 25" fill="none" xmlns="http://www.w3.org/2000/svg">
<path fill-rule="evenodd" clip-rule="evenodd" d="M17.3931 15.743L23.689 22.0188C23.7974 22.1276 23.8809 22.2523 23.9395 22.3854C24.1328 22.8252 24.0479 23.3573 23.6875 23.718C23.4517 23.9528 23.1426 24.0696 22.8335 24.0696C22.5259 24.0696 22.2168 23.9528 21.981 23.718L15.6763 17.4326C14.0356 18.6921 11.9878 19.4504 9.76123 19.4504C4.40137 19.4504 0.0405273 15.1031 0.0405273 9.75989C0.0405273 4.41687 4.40137 0.0695801 9.76123 0.0695801C15.1211 0.0695801 19.4819 4.41687 19.4819 9.75989C19.4819 12.0181 18.6968 14.0934 17.3931 15.743ZM9.7627 2.47339C5.73291 2.47339 2.45312 5.74237 2.45312 9.76007C2.45312 13.7776 5.73291 17.0466 9.7627 17.0466C13.7925 17.0466 17.0723 13.7776 17.0723 9.76007C17.0723 5.74237 13.7925 2.47339 9.7627 2.47339Z" fill="#6B6C7E"/>
</svg>
