<svg width="32" height="32" viewBox="0 0 32 32" fill="none" xmlns="http://www.w3.org/2000/svg">
<path d="M0 4C0 1.79086 1.79086 0 4 0H28C30.2091 0 32 1.79086 32 4V28C32 30.2091 30.2091 32 28 32H4C1.79086 32 0 30.2091 0 28V4Z" fill="#FFEBE6"/>
<g clip-path="url(#clip0_475:1461)">
<path d="M18 20.041V6.5C18 5.96957 17.7893 5.46086 17.4142 5.08579C17.0391 4.71071 16.5304 4.5 16 4.5C15.4696 4.5 14.9609 4.71071 14.5858 5.08579C14.2107 5.46086 14 5.96957 14 6.5V20.041C13.2374 20.4813 12.6415 21.1609 12.3045 21.9744C11.9675 22.7879 11.9084 23.6898 12.1363 24.5404C12.3642 25.3909 12.8664 26.1425 13.565 26.6785C14.2635 27.2146 15.1195 27.5051 16 27.5051C16.8805 27.5051 17.7365 27.2146 18.435 26.6785C19.1336 26.1425 19.6358 25.3909 19.8637 24.5404C20.0916 23.6898 20.0325 22.7879 19.6955 21.9744C19.3586 21.1609 18.7626 20.4813 18 20.041Z" fill="#FF693D"/>
<path d="M16 4.5C15.4696 4.5 14.9609 4.71071 14.5858 5.08579C14.2107 5.46086 14 5.96957 14 6.5V11.725H18V6.5C18 5.96957 17.7893 5.46086 17.4142 5.08579C17.0391 4.71071 16.5304 4.5 16 4.5Z" fill="white"/>
<path d="M18 20.041V6.5C18 5.96957 17.7893 5.46086 17.4142 5.08579C17.0391 4.71071 16.5304 4.5 16 4.5C15.4696 4.5 14.9609 4.71071 14.5858 5.08579C14.2107 5.46086 14 5.96957 14 6.5V20.041C13.2374 20.4813 12.6415 21.1609 12.3045 21.9744C11.9675 22.7879 11.9084 23.6898 12.1363 24.5404C12.3642 25.3909 12.8664 26.1425 13.565 26.6785C14.2635 27.2146 15.1195 27.5051 16 27.5051C16.8805 27.5051 17.7365 27.2146 18.435 26.6785C19.1336 26.1425 19.6358 25.3909 19.8637 24.5404C20.0916 23.6898 20.0325 22.7879 19.6955 21.9744C19.3586 21.1609 18.7626 20.4813 18 20.041V20.041Z" stroke="#80351F" stroke-linecap="round" stroke-linejoin="round"/>
<path d="M16 24.5C16.5523 24.5 17 24.0523 17 23.5C17 22.9477 16.5523 22.5 16 22.5C15.4477 22.5 15 22.9477 15 23.5C15 24.0523 15.4477 24.5 16 24.5Z" fill="#FF693D" stroke="#80351F" stroke-linecap="round" stroke-linejoin="round"/>
<path d="M16 22.5V11.5" stroke="#80351F" stroke-linecap="round" stroke-linejoin="round"/>
</g>
<defs>
<clipPath id="clip0_475:1461">
<rect width="24" height="24" fill="white" transform="translate(4 4)"/>
</clipPath>
</defs>
</svg>
