<svg width="32" height="32" viewBox="0 0 32 32" fill="none" xmlns="http://www.w3.org/2000/svg">
<path d="M0 4C0 1.79086 1.79086 0 4 0H28C30.2091 0 32 1.79086 32 4V28C32 30.2091 30.2091 32 28 32H4C1.79086 32 0 30.2091 0 28V4Z" fill="#E3ECFC"/>
<g clip-path="url(#clip0_1671_2639)">
<path d="M16 17C19.0376 17 21.5 14.5376 21.5 11.5C21.5 8.46243 19.0376 6 16 6C12.9624 6 10.5 8.46243 10.5 11.5C10.5 14.5376 12.9624 17 16 17Z" fill="#0053F0"/>
<path d="M11 27.498L18.451 20.616M11 27.498H21L16 13.998L11 27.498ZM16 13.998V11.498V13.998ZM14.333 18.498H17.667H14.333ZM16 4.49799V6.49799V4.49799ZM11 6.49799L12.5 7.99799L11 6.49799ZM9 11.498H11H9ZM11 16.498L12.5 14.998L11 16.498ZM21 16.498L19.5 14.998L21 16.498ZM21 6.49799L19.5 7.99799L21 6.49799ZM23 11.498H21H23ZM21 27.498L13.549 20.616L21 27.498Z" stroke="#1F4080" stroke-linecap="round" stroke-linejoin="round"/>
</g>
<defs>
<clipPath id="clip0_1671_2639">
<rect width="24" height="24" fill="white" transform="translate(4 4)"/>
</clipPath>
</defs>
</svg>
