<svg width="32" height="32" fill="none" xmlns="http://www.w3.org/2000/svg"><path d="M0 4a4 4 0 0 1 4-4h24a4 4 0 0 1 4 4v24a4 4 0 0 1-4 4H4a4 4 0 0 1-4-4V4Z" fill="#E3ECFC"/><g clip-path="url(#a)" stroke="#1F4080"><path d="M16 13.998h7.028l-8.007 11.21 1.467-6.601.135-.609H8.972l8.007-11.21-1.467 6.601-.135.609H16Z" fill="#0053F0"/><path d="m16.979 6.788-1.467 6.601-.135.609h1.918l-4 4H8.972l8.007-11.21Z" fill="#F0F5FF"/><path d="m24 13.498-10 14 2-9H8l10-14-2 9h8Z" stroke-linecap="round" stroke-linejoin="round"/></g><defs><clipPath id="a"><path fill="#fff" transform="translate(4 4)" d="M0 0h24v24H0z"/></clipPath></defs></svg>